<svg width="20" height="20" viewBox="0 0 20 20" fill="none" xmlns="http://www.w3.org/2000/svg">
<path fill-rule="evenodd" clip-rule="evenodd" d="M2 4.75C2 4.33579 2.42144 4 2.94132 4H17.0586C17.5785 4 17.9999 4.33579 17.9999 4.75C17.9999 5.16421 17.5785 5.5 17.0586 5.5H2.94132C2.42144 5.5 2 5.16421 2 4.75Z" fill="#CB3CFF"/>
<path fill-rule="evenodd" clip-rule="evenodd" d="M2 9.94137C2 9.52716 2.42144 9.19137 2.94132 9.19137H17.0586C17.5785 9.19137 17.9999 9.52716 17.9999 9.94137C17.9999 10.3556 17.5785 10.6914 17.0586 10.6914H2.94132C2.42144 10.6914 2 10.3556 2 9.94137Z" fill="#CB3CFF"/>
<path fill-rule="evenodd" clip-rule="evenodd" d="M2 15.1327C2 14.7185 2.42144 14.3827 2.94132 14.3827H17.0586C17.5785 14.3827 17.9999 14.7185 17.9999 15.1327C17.9999 15.5469 17.5785 15.8827 17.0586 15.8827H2.94132C2.42144 15.8827 2 15.5469 2 15.1327Z" fill="#CB3CFF"/>
</svg>
